<svg id="visual" viewBox="0 0 960 540" width="960" height="540" xmlns="http://www.w3.org/2000/svg" xmlns:xlink="http://www.w3.org/1999/xlink" version="1.1"><rect x="0" y="0" width="960" height="540" fill="#001220"></rect><path d="M0 229L22.8 235C45.7 241 91.3 253 137 250.5C182.7 248 228.3 231 274 213.7C319.7 196.3 365.3 178.7 411.2 174.3C457 170 503 179 548.8 191.5C594.7 204 640.3 220 686 224.3C731.7 228.7 777.3 221.3 823 225C868.7 228.7 914.3 243.3 937.2 250.7L960 258L960 0L937.2 0C914.3 0 868.7 0 823 0C777.3 0 731.7 0 686 0C640.3 0 594.7 0 548.8 0C503 0 457 0 411.2 0C365.3 0 319.7 0 274 0C228.3 0 182.7 0 137 0C91.3 0 45.7 0 22.8 0L0 0Z" fill="#f58fec"></path><path d="M0 182L22.8 177.5C45.7 173 91.3 164 137 168C182.7 172 228.3 189 274 196.7C319.7 204.3 365.3 202.7 411.2 190.5C457 178.3 503 155.7 548.8 144.8C594.7 134 640.3 135 686 149.5C731.7 164 777.3 192 823 205C868.7 218 914.3 216 937.2 215L960 214L960 0L937.2 0C914.3 0 868.7 0 823 0C777.3 0 731.7 0 686 0C640.3 0 594.7 0 548.8 0C503 0 457 0 411.2 0C365.3 0 319.7 0 274 0C228.3 0 182.7 0 137 0C91.3 0 45.7 0 22.8 0L0 0Z" fill="#d777de"></path><path d="M0 144L22.8 144C45.7 144 91.3 144 137 144.7C182.7 145.3 228.3 146.7 274 139.3C319.7 132 365.3 116 411.2 108.2C457 100.3 503 100.7 548.8 105.7C594.7 110.7 640.3 120.3 686 130.8C731.7 141.3 777.3 152.7 823 151.5C868.7 150.3 914.3 136.7 937.2 129.8L960 123L960 0L937.2 0C914.3 0 868.7 0 823 0C777.3 0 731.7 0 686 0C640.3 0 594.7 0 548.8 0C503 0 457 0 411.2 0C365.3 0 319.7 0 274 0C228.3 0 182.7 0 137 0C91.3 0 45.7 0 22.8 0L0 0Z" fill="#b761d1"></path><path d="M0 69L22.8 78.5C45.7 88 91.3 107 137 114.2C182.7 121.3 228.3 116.7 274 111.8C319.7 107 365.3 102 411.2 94C457 86 503 75 548.8 71C594.7 67 640.3 70 686 76.7C731.7 83.3 777.3 93.7 823 100.2C868.7 106.7 914.3 109.3 937.2 110.7L960 112L960 0L937.2 0C914.3 0 868.7 0 823 0C777.3 0 731.7 0 686 0C640.3 0 594.7 0 548.8 0C503 0 457 0 411.2 0C365.3 0 319.7 0 274 0C228.3 0 182.7 0 137 0C91.3 0 45.7 0 22.8 0L0 0Z" fill="#964dc4"></path><path d="M0 36L22.8 35.8C45.7 35.7 91.3 35.3 137 34.7C182.7 34 228.3 33 274 32C319.7 31 365.3 30 411.2 31.7C457 33.3 503 37.7 548.8 44C594.7 50.3 640.3 58.7 686 59.7C731.7 60.7 777.3 54.3 823 55.7C868.7 57 914.3 66 937.2 70.5L960 75L960 0L937.2 0C914.3 0 868.7 0 823 0C777.3 0 731.7 0 686 0C640.3 0 594.7 0 548.8 0C503 0 457 0 411.2 0C365.3 0 319.7 0 274 0C228.3 0 182.7 0 137 0C91.3 0 45.7 0 22.8 0L0 0Z" fill="#723ab7"></path></svg>