<svg id="visual" viewBox="0 0 900 600" width="100%" height="100%" xmlns="http://www.w3.org/2000/svg" xmlns:xlink="http://www.w3.org/1999/xlink" version="1.1"><rect x="0" y="0" width="900" height="600" fill="#001220"></rect><path d="M0 450L21.5 444C43 438 86 426 128.8 424.3C171.7 422.7 214.3 431.3 257.2 429.7C300 428 343 416 385.8 409.8C428.7 403.7 471.3 403.3 514.2 407.5C557 411.7 600 420.3 642.8 430C685.7 439.7 728.3 450.3 771.2 451.8C814 453.3 857 445.7 878.5 441.8L900 438L900 601L878.5 601C857 601 814 601 771.2 601C728.3 601 685.7 601 642.8 601C600 601 557 601 514.2 601C471.3 601 428.7 601 385.8 601C343 601 300 601 257.2 601C214.3 601 171.7 601 128.8 601C86 601 43 601 21.5 601L0 601Z" fill="#f58fec"></path><path d="M0 438L21.5 439C43 440 86 442 128.8 441.5C171.7 441 214.3 438 257.2 447.2C300 456.3 343 477.7 385.8 488.5C428.7 499.3 471.3 499.7 514.2 496.8C557 494 600 488 642.8 486.2C685.7 484.3 728.3 486.7 771.2 486.7C814 486.7 857 484.3 878.5 483.2L900 482L900 601L878.5 601C857 601 814 601 771.2 601C728.3 601 685.7 601 642.8 601C600 601 557 601 514.2 601C471.3 601 428.7 601 385.8 601C343 601 300 601 257.2 601C214.3 601 171.7 601 128.8 601C86 601 43 601 21.5 601L0 601Z" fill="#d777de"></path><path d="M0 470L21.5 477.8C43 485.7 86 501.3 128.8 506.5C171.7 511.7 214.3 506.3 257.2 506.2C300 506 343 511 385.8 506.3C428.7 501.7 471.3 487.3 514.2 481.8C557 476.3 600 479.7 642.8 486.7C685.7 493.7 728.3 504.3 771.2 503.2C814 502 857 489 878.5 482.5L900 476L900 601L878.5 601C857 601 814 601 771.2 601C728.3 601 685.7 601 642.8 601C600 601 557 601 514.2 601C471.3 601 428.7 601 385.8 601C343 601 300 601 257.2 601C214.3 601 171.7 601 128.8 601C86 601 43 601 21.5 601L0 601Z" fill="#b761d1"></path><path d="M0 521L21.5 518.2C43 515.3 86 509.7 128.8 514.8C171.7 520 214.3 536 257.2 537.2C300 538.3 343 524.7 385.8 518.2C428.7 511.7 471.3 512.3 514.2 515.7C557 519 600 525 642.8 529C685.7 533 728.3 535 771.2 535.7C814 536.3 857 535.7 878.5 535.3L900 535L900 601L878.5 601C857 601 814 601 771.2 601C728.3 601 685.7 601 642.8 601C600 601 557 601 514.2 601C471.3 601 428.7 601 385.8 601C343 601 300 601 257.2 601C214.3 601 171.7 601 128.8 601C86 601 43 601 21.5 601L0 601Z" fill="#964dc4"></path><path d="M0 578L21.5 577.3C43 576.7 86 575.3 128.8 571.7C171.7 568 214.3 562 257.2 562.7C300 563.3 343 570.7 385.8 569.7C428.7 568.7 471.3 559.3 514.2 555.3C557 551.3 600 552.7 642.8 551.8C685.7 551 728.3 548 771.2 546C814 544 857 543 878.5 542.5L900 542L900 601L878.5 601C857 601 814 601 771.2 601C728.3 601 685.7 601 642.8 601C600 601 557 601 514.2 601C471.3 601 428.7 601 385.8 601C343 601 300 601 257.2 601C214.3 601 171.7 601 128.8 601C86 601 43 601 21.5 601L0 601Z" fill="#723ab7"></path></svg>