<svg id="visual" viewBox="0 0 960 540" width="100%" height="100%" xmlns="http://www.w3.org/2000/svg" xmlns:xlink="http://www.w3.org/1999/xlink" version="1.1"><rect x="0" y="0" width="960" height="540" fill="#001220"></rect><path d="M0 405L22.8 399.7C45.7 394.3 91.3 383.7 137 382.2C182.7 380.7 228.3 388.3 274 386.8C319.7 385.3 365.3 374.7 411.2 369.2C457 363.7 503 363.3 548.8 367C594.7 370.7 640.3 378.3 686 387C731.7 395.7 777.3 405.3 823 406.7C868.7 408 914.3 401 937.2 397.5L960 394L960 541L937.2 541C914.3 541 868.7 541 823 541C777.3 541 731.7 541 686 541C640.3 541 594.7 541 548.8 541C503 541 457 541 411.2 541C365.3 541 319.7 541 274 541C228.3 541 182.7 541 137 541C91.3 541 45.7 541 22.8 541L0 541Z" fill="#f58fec"></path><path d="M0 394L22.8 394.8C45.7 395.7 91.3 397.3 137 396.8C182.7 396.3 228.3 393.7 274 402C319.7 410.3 365.3 429.7 411.2 439.5C457 449.3 503 449.7 548.8 447.2C594.7 444.7 640.3 439.3 686 437.7C731.7 436 777.3 438 823 438C868.7 438 914.3 436 937.2 435L960 434L960 541L937.2 541C914.3 541 868.7 541 823 541C777.3 541 731.7 541 686 541C640.3 541 594.7 541 548.8 541C503 541 457 541 411.2 541C365.3 541 319.7 541 274 541C228.3 541 182.7 541 137 541C91.3 541 45.7 541 22.8 541L0 541Z" fill="#d777de"></path><path d="M0 423L22.8 430.2C45.7 437.3 91.3 451.7 137 456.3C182.7 461 228.3 456 274 455.7C319.7 455.3 365.3 459.7 411.2 455.5C457 451.3 503 438.7 548.8 433.8C594.7 429 640.3 432 686 438.2C731.7 444.3 777.3 453.7 823 452.5C868.7 451.3 914.3 439.7 937.2 433.8L960 428L960 541L937.2 541C914.3 541 868.7 541 823 541C777.3 541 731.7 541 686 541C640.3 541 594.7 541 548.8 541C503 541 457 541 411.2 541C365.3 541 319.7 541 274 541C228.3 541 182.7 541 137 541C91.3 541 45.7 541 22.8 541L0 541Z" fill="#b761d1"></path><path d="M0 469L22.8 466.5C45.7 464 91.3 459 137 463.7C182.7 468.3 228.3 482.7 274 483.7C319.7 484.7 365.3 472.3 411.2 466.5C457 460.7 503 461.3 548.8 464.3C594.7 467.3 640.3 472.7 686 476.2C731.7 479.7 777.3 481.3 823 481.8C868.7 482.3 914.3 481.7 937.2 481.3L960 481L960 541L937.2 541C914.3 541 868.7 541 823 541C777.3 541 731.7 541 686 541C640.3 541 594.7 541 548.8 541C503 541 457 541 411.2 541C365.3 541 319.7 541 274 541C228.3 541 182.7 541 137 541C91.3 541 45.7 541 22.8 541L0 541Z" fill="#964dc4"></path><path d="M0 520L22.8 519.3C45.7 518.7 91.3 517.3 137 514C182.7 510.7 228.3 505.3 274 506C319.7 506.7 365.3 513.3 411.2 512.5C457 511.7 503 503.3 548.8 499.7C594.7 496 640.3 497 686 496.3C731.7 495.7 777.3 493.3 823 491.7C868.7 490 914.3 489 937.2 488.5L960 488L960 541L937.2 541C914.3 541 868.7 541 823 541C777.3 541 731.7 541 686 541C640.3 541 594.7 541 548.8 541C503 541 457 541 411.2 541C365.3 541 319.7 541 274 541C228.3 541 182.7 541 137 541C91.3 541 45.7 541 22.8 541L0 541Z" fill="#723ab7"></path></svg>